PathFileType	4	(X/Y/Z)	Patient4_TMGait_0pt2_03_left_06.trc.trc
DataRate	CameraRate	NumFrames	NumMarkers	Units	OrigDataRate	OrigDataStartFrame	OrigNumFrames
47.457627118644	47.457627118644	4	33	mm	47.457627118644	18	       141
Frame#	Time	Sacral			L.Shoulder			Chest			R.Shoulder			Neck			R.ASIS			L.ASIS			R.Thigh.Superior			R.Thigh.Lateral			R.Thigh.Inferior			R.Patella			L.Thigh.Superior			L.Thigh.Lateral			L.Thigh.Inferior			L.Patella			L.Shank.Superior			L.Shank.Lateral			L.Shank.Inferior			R.Shank.Superior			R.Shank.Lateral			R.Shank.Inferior			R.Heel			R.Midfoot.Superior			R.Midfoot.Lateral			R.Toe			L.Heel			L.Midfoot.Lateral			L.Midfoot.Superior			L.Toe			L.Elbow			L.Wrist			R.Elbow			R.Wrist			
		X1	Y1	Z1	X2	Y2	Z2	X3	Y3	Z3	X4	Y4	Z4	X5	Y5	Z5	X6	Y6	Z6	X7	Y7	Z7	X8	Y8	Z8	X9	Y9	Z9	X10	Y10	Z10	X11	Y11	Z11	X12	Y12	Z12	X13	Y13	Z13	X14	Y14	Z14	X15	Y15	Z15	X16	Y16	Z16	X17	Y17	Z17	X18	Y18	Z18	X19	Y19	Z19	X20	Y20	Z20	X21	Y21	Z21	X22	Y22	Z22	X23	Y23	Z23	X24	Y24	Z24	X25	Y25	Z25	X26	Y26	Z26	X27	Y27	Z27	X28	Y28	Z28	X29	Y29	Z29	X30	Y30	Z30	X31	Y31	Z31	X32	Y32	Z32	X33	Y33	Z33	

18	12.048214285714	863.483762350799	1006.076817373839	573.370821680998	1011.783406823635	1431.996518002083	359.050698784737	1149.191469720547	1352.256627533865	484.528661073097	1123.372871603852	1425.964966821411	672.157755368728	1053.401255330222	1489.241849899893	509.255406215206	1110.875621408577	930.172975939141	628.519059539650	1032.995444637019	963.099648563086	365.754737584703	1129.768865090352	727.427153740633	577.719179482906	1060.751144317480	615.657191969245	647.997225704948	1110.943357358412	567.358102744931	547.288127530697	1107.269197260686	476.087177734132	548.309114911486	1112.415966072716	779.119722048455	376.616549527477	1053.784467683222	649.382762418099	306.291317772859	1162.528685324764	591.408146603441	356.043697313808	1185.169249601611	525.730880923684	350.649154991817	1167.726282106287	453.821654773456	336.070605254587	1096.053887493571	330.088963900975	276.308707462753	1181.103048531314	223.884738000003	321.043294519912	1065.632118491214	389.428360349368	557.233623870994	996.223116027257	291.914693482809	632.473024601148	1003.355339371388	198.864965533186	556.219250876828	843.368583127526	44.610879710021	551.209735562615	1020.520398353986	95.501283391520	553.173048593243	939.257162746592	37.033102419796	607.795981068829	1142.151421924934	40.525531435484	557.541508330014	1087.091653410462	53.845302139012	351.527378867649	1160.952326520805	49.988021384016	271.750066196387	1240.469102909794	118.775071736811	292.630487078308	1369.519255564991	74.523827306802	266.179132900245	847.060469605583	1116.827936267498	283.341590627985	809.398942521942	860.642110673383	328.874385043751	1350.195398416461	1178.964324427077	737.915706640174	1523.232116696726	1316.247894287118	613.967733019223	
19	12.069285714286	862.494934746842	1006.591417076590	570.478997683497	1013.151182199290	1431.429806941926	355.742585361945	1149.865702291886	1351.678815855844	481.802347008347	1123.662143685999	1425.683015425454	669.062733067196	1054.534024975135	1488.948584486330	505.925211444270	1109.386875525052	930.057605172358	627.520307017782	1033.061155316588	962.390730211918	364.258241111514	1127.181446639572	727.039412222154	577.360809228638	1056.863076769143	615.906740633607	647.628097148205	1107.215598071856	566.957166387864	547.443389127367	1102.893444126756	475.833008943010	548.689117835704	1111.320173325129	777.224899576340	375.939576798104	1051.470454822413	647.947922671089	305.625123932810	1159.554900836755	589.449446307772	355.878656748999	1180.849523793556	523.683881763585	351.083297533296	1164.066086725558	452.023783110584	336.086217867090	1093.228859301628	328.260118458029	275.785141504403	1178.028818327283	222.332641514404	321.256939222519	1061.325824140100	389.406343765787	557.469777498810	991.551831685578	291.992640007128	632.548398997416	998.995297376239	198.846036956636	556.329957013180	839.061499347967	44.495314149132	551.149611882106	1016.241352257242	95.489952097427	553.171973600502	934.941670169664	37.003274201125	607.774480391155	1137.858237039005	40.540411917133	557.583906486047	1083.768951958383	52.940134860991	351.127556865807	1158.136999363782	49.037509356584	271.833547544136	1237.880424269355	117.047886691269	293.584098181189	1366.762334272943	72.121531002066	267.793057260184	847.960781903305	1116.240316915468	281.101083980503	808.943352757892	860.536407823178	328.613694679303	1353.405955986482	1182.913967627442	732.866315587215	1518.385531280096	1327.460998843425	607.066750371977	
20	12.090357142857	861.593280164781	1006.712152866723	567.235293052668	1014.778954603615	1430.407914223001	352.044186056482	1150.640063118329	1350.750730774671	478.906583353914	1123.798881709331	1425.108316397947	665.778956082872	1055.631301821575	1488.311307009132	502.296140454148	1108.027737432417	929.725401551645	626.372498713301	1033.411254305389	961.247035998070	362.561614479043	1125.150922786731	726.539535182021	576.739749976073	1053.733082692463	615.901136637848	646.929768040253	1104.303708125674	566.413187095183	547.232496114319	1099.461112860464	475.295423583405	548.683061276496	1110.571416650852	774.895806168838	375.176211570126	1049.542716283368	646.126373201737	304.954773989843	1156.916751886070	587.075177613187	355.800932481547	1176.806234228667	521.071053972110	351.562549917586	1160.402630489090	449.608806215996	336.208442519507	1089.834836917188	326.050284923523	275.543427550392	1173.951743108208	220.049423010357	321.786094825676	1057.734453870691	389.105021894012	557.359529123394	987.462310869474	291.982314978845	632.387443943958	994.929592405111	198.686387013637	556.291594060964	834.782857111463	44.435716349086	551.093405123242	1011.978078426607	95.474619022313	553.156024624948	930.655513305441	36.987815086031	607.751867606782	1133.587665370326	40.519477964499	557.630847269490	1078.748614248568	51.551249809134	351.070620496117	1153.595620762664	47.595235808403	272.225109973160	1233.759332896592	114.588928555548	294.973931195892	1362.398447345775	68.703908451299	269.705549473957	849.227811438196	1115.162502702002	278.160208363193	808.570579735678	859.956037896920	327.338512238520	1355.861635957551	1185.957232327762	728.222463043839	1513.306780182527	1336.704886667937	600.836329995770	
21	12.111428571429	860.791473380235	1006.528910587788	563.684634414177	1016.617469950147	1429.049383911939	348.011454228003	1151.509117858957	1349.567512363356	475.833205900743	1123.841712427757	1424.318189378699	662.314881619429	1056.710759704297	1487.419157970935	498.400853616581	1106.814373148366	929.235542820916	625.015358440055	1033.978656350502	959.782195237042	360.641406418355	1123.645600220081	725.960063810418	575.821683586355	1051.317453492948	615.687373033486	645.889858611437	1102.147675519859	565.757119362661	546.642306289075	1096.898705972729	474.520717287966	548.288774001053	1110.104858513326	772.247382961427	374.259352007193	1047.940630764030	644.036700267147	304.211223452357	1154.558527309534	584.403987340082	355.727416180715	1173.068331159450	518.087276498544	352.003509915199	1156.827817534844	446.774136370017	336.368675360115	1086.124368608821	323.559735587463	275.481735405240	1169.238018746388	217.233862022390	322.537564316598	1054.796155003375	388.573961876352	556.914916155044	983.913248473193	291.924545949122	632.004681555034	991.140498914364	198.424565153209	556.117236158439	830.537423351379	44.454598130453	551.046267770656	1007.741701566516	95.461412666073	553.131364480787	926.402964005572	36.994534257120	607.729699971842	1129.341888629278	40.462405077970	557.683199488064	1072.596819737649	49.771824122822	351.246553610073	1147.908614801301	45.794282640605	272.822882931901	1228.587740332467	111.650373687516	296.671347312953	1356.973453418968	64.668648567511	271.838089837278	850.831558239768	1113.740256202616	274.506825601726	808.349274924941	859.015466322009	324.955749177640	1357.634597848247	1188.107001033871	723.930756436714	1508.168628520664	1344.067006614996	595.193515036396	
